<?xml version="1.0" standalone="no"?>
<!DOCTYPE svg PUBLIC "-//W3C//DTD SVG 20010904//EN"
 "http://www.w3.org/TR/2001/REC-SVG-20010904/DTD/svg10.dtd">
<svg version="1.0" xmlns="http://www.w3.org/2000/svg"
 width="1136.000000pt" height="1136.000000pt" viewBox="0 0 1136.000000 1136.000000"
 preserveAspectRatio="xMidYMid meet">
<metadata>
Created by potrace 1.11, written by Peter Selinger 2001-2013
</metadata>
<g transform="translate(0.000000,1136.000000) scale(0.100000,-0.100000)"
fill="#000000" stroke="none">
<path d="M5330 11189 c-1087 -68 -2119 -451 -2981 -1105 -398 -302 -798 -704
-1092 -1098 -904 -1213 -1272 -2745 -1017 -4241 159 -932 552 -1801 1148
-2541 l33 -42 -45 -90 c-223 -443 -508 -770 -817 -937 -53 -28 -120 -75 -156
-109 -196 -182 -199 -487 -8 -682 109 -111 215 -145 507 -163 662 -42 1414
168 2026 566 62 40 118 73 124 73 6 0 43 -17 82 -39 39 -21 132 -67 206 -101
1797 -833 3887 -654 5496 473 884 619 1577 1491 1974 2487 400 1004 495 2125
269 3195 -187 888 -605 1735 -1199 2430 -236 276 -624 638 -920 857 -514 382
-1120 682 -1735 859 -602 174 -1270 248 -1895 208z m662 -559 c1474 -99 2785
-812 3668 -1995 560 -749 889 -1634 961 -2584 15 -206 7 -729 -16 -916 -119
-1006 -490 -1869 -1136 -2646 -130 -156 -437 -463 -594 -594 -828 -691 -1781
-1078 -2843 -1156 -232 -17 -697 -7 -917 20 -633 76 -1174 241 -1715 524 -335
174 -307 162 -379 161 -80 -1 -123 -22 -256 -124 -185 -143 -506 -314 -757
-404 -304 -109 -669 -177 -951 -176 l-72 1 26 22 c15 12 62 49 105 82 306 234
615 657 845 1157 104 226 97 284 -57 468 -473 564 -792 1158 -988 1837 -228
789 -256 1625 -82 2435 317 1471 1296 2722 2651 3388 615 302 1200 455 1935
504 114 7 433 5 572 -4z"/>
<path d="M5598 8776 c-86 -23 -162 -89 -202 -176 -20 -42 -21 -65 -24 -376
l-3 -332 -127 -6 c-343 -18 -583 -110 -818 -314 -487 -421 -569 -1161 -187
-1677 186 -251 438 -417 750 -491 57 -14 162 -18 648 -24 641 -7 630 -6 764
-75 157 -80 273 -221 327 -400 29 -94 25 -257 -9 -360 -68 -206 -225 -357
-440 -423 -45 -14 -166 -17 -922 -22 -862 -5 -870 -5 -916 -26 -245 -114 -244
-446 1 -563 l55 -26 437 -3 437 -3 3 -337 c3 -385 4 -389 93 -477 169 -170
449 -92 510 141 12 46 15 124 15 365 l0 306 133 8 c221 12 377 50 542 132 363
181 614 523 681 928 32 198 5 459 -66 645 -131 337 -426 621 -762 734 -174 59
-168 58 -793 66 -648 7 -631 5 -777 81 -193 101 -322 302 -335 524 -17 291
158 543 447 647 l65 23 860 5 860 5 57 28 c109 54 172 152 172 272 0 123 -68
229 -184 284 l-55 26 -422 3 -423 3 0 303 c0 335 -6 383 -61 462 -53 77 -162
134 -254 133 -16 0 -51 -6 -77 -13z"/>
</g>
</svg>
