<svg width="56" height="36" viewBox="0 0 56 36" fill="none" xmlns="http://www.w3.org/2000/svg">
<path d="M22.3933 2H50C52.2091 2 54 3.79086 54 6V30C54 32.2091 52.2091 34 50 34H22.2975C21.3113 34 20.3599 33.6357 19.6259 32.977L6.67511 21.3545C4.93681 19.7945 4.89927 17.0832 6.59371 15.4756L19.6403 3.09815C20.3835 2.39306 21.3689 2 22.3933 2Z" stroke="#EF3649" stroke-width="4"/>
<path fill-rule="evenodd" clip-rule="evenodd" d="M27.4386 26.168C26.6441 25.4007 26.622 24.1346 27.3894 23.34L39.6106 10.6852C40.378 9.89068 41.6441 9.86862 42.4386 10.6359C43.2332 11.4033 43.2552 12.6694 42.4879 13.4639L30.2666 26.1188C29.4993 26.9133 28.2332 26.9354 27.4386 26.168Z" fill="#EF3649"/>
<path fill-rule="evenodd" clip-rule="evenodd" d="M27.4386 10.3893C26.6441 11.1567 26.622 12.4228 27.3894 13.2173L39.6106 25.8721C40.378 26.6667 41.6441 26.6888 42.4386 25.9214C43.2332 25.1541 43.2552 23.888 42.4879 23.0934L30.2666 10.4386C29.4993 9.64408 28.2332 9.62201 27.4386 10.3893Z" fill="#EF3649"/>
</svg>
