<svg width="42" height="46" viewBox="0 0 42 46" fill="none" xmlns="http://www.w3.org/2000/svg">
<path d="M30.5909 12.3287C30.5909 17.803 26.2512 22.1573 21 22.1573C15.7487 22.1573 11.4091 17.803 11.4091 12.3287C11.4091 6.85432 15.7487 2.5 21 2.5C26.2512 2.5 30.5909 6.85432 30.5909 12.3287Z" stroke="white" stroke-width="5"/>
<path d="M39.5 37.553C39.5 39.2147 39.0602 40.1848 38.4818 40.8349C37.8592 41.5349 36.8309 42.1378 35.1905 42.5859C31.8431 43.5002 27.0953 43.5001 21.2607 43.4999L21 43.4999L20.7393 43.4999C14.9047 43.5001 10.1569 43.5002 6.80948 42.5859C5.16907 42.1378 4.14082 41.5349 3.51815 40.8349C2.9398 40.1848 2.5 39.2147 2.5 37.553C2.5 34.2351 4.31032 31.0294 7.63867 28.5644C10.9666 26.0997 15.6823 24.5 21 24.5C26.3177 24.5 31.0334 26.0997 34.3613 28.5644C37.6897 31.0294 39.5 34.2351 39.5 37.553Z" stroke="white" stroke-width="5"/>
</svg>
