<svg width="67" height="46" viewBox="0 0 67 46" fill="none" xmlns="http://www.w3.org/2000/svg">
<path d="M30.5909 12.3287C30.5909 17.803 26.2512 22.1573 21 22.1573C15.7487 22.1573 11.4091 17.803 11.4091 12.3287C11.4091 6.85432 15.7487 2.5 21 2.5C26.2512 2.5 30.5909 6.85432 30.5909 12.3287Z" stroke="white" stroke-width="5"/>
<path d="M39.5 37.553C39.5 39.2147 39.0602 40.1848 38.4819 40.8349C37.8592 41.5349 36.8309 42.1378 35.1905 42.5859C31.843 43.5002 27.0953 43.5001 21.2606 43.4999L21 43.4999L20.7394 43.4999C14.9047 43.5001 10.157 43.5002 6.80948 42.5859C5.16907 42.1378 4.14082 41.5349 3.51815 40.8349C2.9398 40.1848 2.5 39.2147 2.5 37.553C2.5 34.2351 4.31032 31.0294 7.63867 28.5644C10.9666 26.0997 15.6823 24.5 21 24.5C26.3177 24.5 31.0334 26.0997 34.3613 28.5644C37.6897 31.0294 39.5 34.2351 39.5 37.553Z" stroke="white" stroke-width="5"/>
<circle cx="48.2605" cy="17" r="7.5" stroke="white" stroke-width="5"/>
<path fill-rule="evenodd" clip-rule="evenodd" d="M40.6219 40.8586C39.6675 43.0077 37.6894 44.2473 35 44.9622C38.1895 46.0019 42.7256 46.001 47.7806 45.9999L48.2605 45.9999L48.7404 45.9999C58.4597 46.0019 66.2605 46.0035 66.2605 38.6089C66.2605 31.0929 58.2016 25 48.2605 25C43.9685 25 40.0273 26.1357 36.9341 28.0314C38.1913 29.2454 39.2122 30.6007 39.9459 32.0596C42.1474 30.8137 45.0161 30 48.2605 30C52.2444 30 55.6617 31.2269 57.973 32.9743C60.2814 34.7196 61.2605 36.7602 61.2605 38.6089C61.2605 39.1036 61.1942 39.3753 61.1537 39.4964C61.1185 39.6013 61.0903 39.6337 61.0768 39.6492L61.0764 39.6496C61.0378 39.6939 60.7398 40.0014 59.6455 40.3066C57.2091 40.9859 53.5468 40.9999 48.2605 40.9999C45.1936 40.9999 42.6733 40.9952 40.6219 40.8586Z" fill="white"/>
</svg>
