<svg width="32" height="39" viewBox="0 0 32 39" fill="none" xmlns="http://www.w3.org/2000/svg">
<circle cx="13.2605" cy="10" r="7.5" stroke="white" stroke-width="5"/>
<path fill-rule="evenodd" clip-rule="evenodd" d="M5.62189 33.8586C4.66752 36.0077 2.68943 37.2473 0 37.9622C3.18951 39.0019 7.72557 39.001 12.7806 38.9999L13.2605 38.9999L13.7404 38.9999C23.4597 39.0019 31.2605 39.0035 31.2605 31.6089C31.2605 24.0929 23.2016 18 13.2605 18C8.96846 18 5.02729 19.1357 1.93406 21.0314C3.19126 22.2454 4.21218 23.6007 4.94591 25.0596C7.14743 23.8137 10.0161 23 13.2605 23C17.2444 23 20.6617 24.2269 22.973 25.9743C25.2814 27.7196 26.2605 29.7602 26.2605 31.6089C26.2605 32.1036 26.1942 32.3753 26.1537 32.4964C26.1185 32.6013 26.0903 32.6337 26.0768 32.6492L26.0764 32.6496C26.0378 32.6939 25.7398 33.0014 24.6455 33.3066C22.2091 33.9859 18.5468 33.9999 13.2605 33.9999C10.1936 33.9999 7.67329 33.9952 5.62189 33.8586Z" fill="white"/>
</svg>
